<?xml version="1.0" encoding="UTF-8"?>
<svg id="_レイヤー_1" data-name="レイヤー 1" xmlns="http://www.w3.org/2000/svg" viewBox="0 0 520 592">
  <defs>
    <style>
      .cls-1 {
        fill: #0070c7;
      }
    </style>
  </defs>
  <path class="cls-1" d="M276.5,260.33s-47.43,46.7-77.5,50.17c-26,3-31.63-2.79-39-7s-19-8-22-1c-2.06,4.8.12,10.9,11,15,2.78,1.05,10,5,2.7,8.6-8.94,4.41-27.36,7.06-30.7,8.4-5,2-7,5-7,9,0,4.47,4.05,6.72,9,6,4.17-.61,31.02-8.59,35-9,2.64-.27,3,1,1.03,2.5-2.89,2.2-26.68,8.5-33.36,12s-10.23,8.17-6.68,13.5c2,3,7,3,11,2,2.95-.74,30.41-14.16,33-15,5.68-1.83,6.99-.69,4,2-2.68,2.41-33,18-33,18,0,0-7,3.9-7,9,0,4,8.38,5.5,16,3,5.49-1.8,23-13,28-15s7-2,4,2c-4.57,6.09-16,15-16,15,0,0-8.92,6.95-6,12,5.5,9.5,16.75-.75,25-9,4-4,26-24,41-33,14.3-8.58,58-38,58-38l-.5-61.17Z"/>
</svg>